<svg width="137" height="42" viewBox="0 0 137 42" fill="none" xmlns="http://www.w3.org/2000/svg">
<path d="M94.5796 25.927C94.5796 21.0502 90.6219 17.0949 85.7454 17.0971C80.8686 17.0971 76.9133 21.0547 76.9156 25.9315C76.9156 30.8083 80.8709 34.7614 85.7476 34.7614C90.6243 34.7614 94.5796 30.8061 94.5796 25.9293V25.927ZM137 25.927C136.993 34.7956 129.796 41.9794 120.927 41.9725C114.331 41.9679 108.407 37.9279 105.995 31.7892L112.109 25.6755V25.9293C112.12 30.7992 116.078 34.7362 120.948 34.7226C125.817 34.7088 129.754 30.7534 129.741 25.8835C129.729 21.0136 125.772 17.0766 120.902 17.0902C118.572 17.0971 116.338 18.0231 114.692 19.6716L97.1654 37.2078C90.9512 43.5204 80.7954 43.6003 74.4807 37.3861C71.4102 34.3636 69.6863 30.2344 69.6932 25.927V3.39742C69.8166 1.40145 71.5337 -0.114389 73.5273 0.00678712C75.3517 0.118818 76.8035 1.57293 76.9178 3.39742V12.4079C84.3255 7.53112 94.2846 9.58426 99.1613 16.992C100.279 18.6907 101.064 20.5861 101.475 22.5775L109.587 14.4679C115.856 8.19644 126.023 8.19416 132.294 14.4633C135.333 17.5018 137.029 21.631 137 25.927ZM67.288 25.927C67.304 34.7865 60.1364 41.9839 51.2747 42C44.6536 42.0136 38.7045 37.9554 36.2993 31.7892L42.4129 25.6755V25.9293C42.4243 30.7992 46.382 34.7362 51.2519 34.7226C56.1217 34.711 60.0587 30.7534 60.0449 25.8835C60.0335 21.0136 56.0759 17.0766 51.2061 17.0902C48.8763 17.0971 46.6426 18.0231 44.9965 19.6716L27.4079 37.2763C21.1366 43.5454 10.9694 43.5432 4.70036 37.2718C-1.5687 31.0003 -1.5664 20.833 4.70493 14.5639C10.974 8.29705 21.1389 8.29705 27.4079 14.5639C28.8186 15.9814 28.8117 18.2769 27.392 19.6852C25.9744 21.096 23.679 21.0891 22.2706 19.6693C18.816 16.2261 13.2237 16.2352 9.78053 19.6899C6.33735 23.1445 6.34649 28.7368 9.8011 32.1801C13.2489 35.6164 18.8252 35.6164 22.2706 32.1801L39.8889 14.5159C46.1465 8.24446 56.3045 8.23303 62.5782 14.4907C65.6144 17.5201 67.3108 21.64 67.288 25.9315V25.9246V25.927Z" fill="#09090B"/>
</svg>
