<svg width="171" height="49" viewBox="0 0 171 49" fill="none" xmlns="http://www.w3.org/2000/svg">
<path d="M44.374 41.8223L40.2598 48.6689H16.668L20.7373 41.7852L44.374 41.8223ZM23.3398 25.4043L11.4893 45.7236L7.5791 38.7607L19.375 18.4609L23.3398 25.4043ZM105.81 28.0459C105.81 29.1818 106.061 30.0447 106.565 30.6338C107.069 31.2017 107.783 31.4853 108.707 31.4854C109.631 31.4854 110.356 31.2018 110.881 30.6338C111.427 30.0447 111.7 29.1818 111.7 28.0459V18.6104H116.488V35.5254H111.7V33.127C111.427 33.4847 111.122 33.8315 110.786 34.168C110.471 34.4836 110.115 34.7682 109.716 35.0205C109.317 35.2728 108.875 35.4719 108.393 35.6191C107.91 35.7665 107.363 35.8408 106.754 35.8408C104.927 35.8407 103.51 35.2829 102.502 34.168C101.515 33.0529 101.021 31.517 101.021 29.5605V18.6104H105.81V28.0459ZM158.588 18.6094H162.557V22.7119H158.588V29.9385C158.588 31.0322 159.102 31.579 160.131 31.5791C160.971 31.5791 161.758 31.379 162.493 30.9795V34.8301C161.989 35.1244 161.433 35.3562 160.824 35.5244C160.215 35.7137 159.512 35.8076 158.714 35.8076C157.979 35.8076 157.306 35.7241 156.697 35.5557C156.109 35.4085 155.595 35.1349 155.154 34.7354C154.734 34.3356 154.398 33.8196 154.146 33.1885C153.915 32.5364 153.8 31.7161 153.8 30.7275V22.7119H151.783V18.6094H153.8V14.2861H158.588V18.6094ZM52.084 28.7041L47.9707 35.5508H24.3789L28.4473 28.668L52.084 28.7041ZM171 35.5254H165.896V30.4766H171V35.5254ZM84.7549 17.916H78.0449V35.5244H73.1934V17.916H66.4844V13.4346H84.7549V17.916ZM131.515 13.4346C133.783 13.4346 135.558 13.9506 136.839 14.9814C138.141 16.0122 138.792 17.4005 138.792 19.1465V19.21C138.792 19.8408 138.708 20.3981 138.54 20.8818C138.393 21.3657 138.183 21.8082 137.91 22.208C137.658 22.5867 137.353 22.9232 136.996 23.2178C136.66 23.5121 136.292 23.7642 135.894 23.9746C137.175 24.4583 138.183 25.1214 138.918 25.9629C139.653 26.7835 140.02 27.9299 140.021 29.4023V29.4658C140.02 30.4755 139.821 31.359 139.422 32.1162C139.044 32.8737 138.487 33.505 137.752 34.0098C137.038 34.5146 136.167 34.8931 135.138 35.1455C134.13 35.398 133.006 35.5244 131.768 35.5244H121.277V13.4346H131.515ZM148.516 35.5244H143.728V18.6094H148.516V35.5244ZM98.1553 18.2939V23.3115H97.9033C96.3077 23.3116 95.048 23.7953 94.124 24.7627C93.2211 25.7305 92.7695 27.2348 92.7695 29.2754V35.5234H87.9814V18.6094H92.7695V22.0176C93.2526 20.8605 93.914 19.9344 94.7539 19.2402C95.5939 18.5462 96.7275 18.2309 98.1553 18.2939ZM15.7607 12.2109L3.91113 32.5303L0 25.5674L11.7959 5.26758L15.7607 12.2109ZM126.003 31.2646H131.768C132.838 31.2646 133.678 31.0748 134.287 30.6963C134.896 30.2965 135.201 29.6866 135.201 28.8662V28.8027C135.201 28.0667 134.917 27.488 134.351 27.0674C133.784 26.6255 132.869 26.4043 131.609 26.4043H126.003V31.2646ZM37.5898 2.40723L40.3027 2.44727L52.0986 22.7471L48.8164 22.7227L50.4297 25.6406L48.373 25.6123L46.748 22.707L44.0645 22.6875L32.2783 2.33008L35.3809 2.37598L34.1094 0.101562L36.3096 0.0917969L37.5898 2.40723ZM22.6543 2.33691L25.0137 2.37207L36.8096 22.6719L33.8799 22.6494L35.4814 25.5488L33.4248 25.5205L31.8115 22.6338L28.7754 22.6113L16.9893 2.25488L20.4453 2.30469L19.1611 0.00976562L21.3623 0L22.6543 2.33691ZM126.003 22.3652H130.476C131.547 22.3652 132.397 22.1868 133.027 21.8291C133.657 21.4505 133.972 20.8507 133.972 20.0303V19.9668C133.972 19.2308 133.699 18.6734 133.153 18.2949C132.607 17.8952 131.82 17.6954 130.791 17.6953H126.003V22.3652ZM148.642 16.748H143.602V12.4883H148.642V16.748Z" fill="#09090B"/>
</svg>
